<svg id="kity_svg_6" xmlns="http://www.w3.org/2000/svg" xmlns:xlink="http://www.w3.org/1999/xlink" version="1.1" width="726" height="584" style="background: rgb(251, 251, 251); visibility: visible;" viewBox="0 0 726 584"><defs id="kity_defs_7"><linearGradient id="kity_linearGradient_17" x1="0" y1="0" x2="0" y2="1"><stop id="kity_stop_18" offset="0" stop-color="rgb(255, 255, 255)"></stop><stop id="kity_stop_19" offset="1" stop-color="rgb(204, 204, 204)"></stop></linearGradient><marker id="kity_marker_2" orient="auto" refX="6" refY="0" viewBox="-7 -7 14 14" markerWidth="7" markerHeight="7" markerUnits="userSpaceOnUse"><path id="kity_path_3" fill="rgb(115, 191, 118)" stroke="none" d="M6,0A6,6,0,1,1,-6,0A6,6,0,1,1,6,0"></path></marker></defs><g id="kity_g_8"><g id="minder1" text-rendering="optimize-speed"><g id="minder_connect_group1"><path id="kity_path_31" fill="none" stroke="rgb(115, 191, 118)" stroke-width="1" d="M198.5,42.5C206.5,42.5,206.5,29.5,214.5,29.5"></path><path id="kity_path_39" fill="none" stroke="rgb(115, 191, 118)" stroke-width="1" d="M66.5,292.5A62,250,0,0,1,128.5,42.5"></path><path id="kity_path_47" fill="none" stroke="rgb(115, 191, 118)" stroke-width="1" d="M198.5,42.5C206.5,42.5,206.5,55.5,214.5,55.5"></path><path id="kity_path_55" fill="none" stroke="rgb(115, 191, 118)" stroke-width="1" d="M66.5,292.5A62,177,0,0,1,128.5,115.5"></path><path id="kity_path_63" fill="none" stroke="rgb(115, 191, 118)" stroke-width="1" d="M226.5,115.5C234.5,115.5,234.5,89.5,242.5,89.5"></path><path id="kity_path_71" fill="none" stroke="rgb(115, 191, 118)" stroke-width="1" d="M226.5,115.5C234.5,115.5,234.5,115.5,242.5,115.5"></path><path id="kity_path_95" fill="none" stroke="rgb(115, 191, 118)" stroke-width="1" d="M226.5,115.5C234.5,115.5,234.5,141.5,242.5,141.5"></path><path id="kity_path_103" fill="none" stroke="rgb(115, 191, 118)" stroke-width="1" d="M66.5,292.5A62,7,0,0,0,128.5,299.5"></path><path id="kity_path_111" fill="none" stroke="rgb(115, 191, 118)" stroke-width="1" d="M198.5,299.5C206.5,299.5,206.5,176.5,214.5,176.5"></path><path id="kity_path_119" fill="none" stroke="rgb(115, 191, 118)" stroke-width="1" d="M247.5,176.5C255.5,176.5,255.5,176.5,263.5,176.5"></path><path id="kity_path_127" fill="none" stroke="rgb(115, 191, 118)" stroke-width="1" d="M198.5,299.5C206.5,299.5,206.5,215.5,214.5,215.5"></path><path id="kity_path_135" fill="none" stroke="rgb(115, 191, 118)" stroke-width="1" d="M255.5,215.5C263.5,215.5,263.5,202.5,271.5,202.5"></path><path id="kity_path_143" fill="none" stroke="rgb(115, 191, 118)" stroke-width="1" d="M255.5,215.5C263.5,215.5,263.5,228.5,271.5,228.5"></path><path id="kity_path_151" fill="none" stroke="rgb(115, 191, 118)" stroke-width="1" d="M198.5,299.5C206.5,299.5,206.5,293.5,214.5,293.5"></path><path id="kity_path_159" fill="none" stroke="rgb(115, 191, 118)" stroke-width="1" d="M243.5,293.5C251.5,293.5,251.5,254.5,259.5,254.5"></path><path id="kity_path_167" fill="none" stroke="rgb(115, 191, 118)" stroke-width="1" d="M243.5,293.5C251.5,293.5,251.5,280.5,259.5,280.5"></path><path id="kity_path_175" fill="none" stroke="rgb(115, 191, 118)" stroke-width="1" d="M243.5,293.5C251.5,293.5,251.5,306.5,259.5,306.5"></path><path id="kity_path_184" fill="none" stroke="rgb(115, 191, 118)" stroke-width="1" d="M243.5,293.5C251.5,293.5,251.5,332.5,259.5,332.5"></path><path id="kity_path_192" fill="none" stroke="rgb(115, 191, 118)" stroke-width="1" d="M198.5,299.5C206.5,299.5,206.5,371.5,214.5,371.5"></path><path id="kity_path_200" fill="none" stroke="rgb(115, 191, 118)" stroke-width="1" d="M247.5,371.5C255.5,371.5,255.5,358.5,263.5,358.5"></path><path id="kity_path_208" fill="none" stroke="rgb(115, 191, 118)" stroke-width="1" d="M247.5,371.5C255.5,371.5,255.5,384.5,263.5,384.5"></path><path id="kity_path_216" fill="none" stroke="rgb(115, 191, 118)" stroke-width="1" d="M198.5,299.5C206.5,299.5,206.5,423.5,214.5,423.5"></path><path id="kity_path_224" fill="none" stroke="rgb(115, 191, 118)" stroke-width="1" d="M248.5,423.5C256.5,423.5,256.5,410.5,264.5,410.5"></path><path id="kity_path_232" fill="none" stroke="rgb(115, 191, 118)" stroke-width="1" d="M248.5,423.5C256.5,423.5,256.5,436.5,264.5,436.5"></path><path id="kity_path_240" fill="none" stroke="rgb(115, 191, 118)" stroke-width="1" d="M66.5,292.5A62,190,0,0,0,128.5,482.5"></path><path id="kity_path_248" fill="none" stroke="rgb(115, 191, 118)" stroke-width="1" d="M226.5,482.5C234.5,482.5,234.5,469.5,242.5,469.5"></path><path id="kity_path_256" fill="none" stroke="rgb(115, 191, 118)" stroke-width="1" d="M301.5,469.5C309.5,469.5,309.5,469.5,317.5,469.5"></path><path id="kity_path_264" fill="none" stroke="rgb(115, 191, 118)" stroke-width="1" d="M226.5,482.5C234.5,482.5,234.5,495.5,242.5,495.5"></path><path id="kity_path_272" fill="none" stroke="rgb(115, 191, 118)" stroke-width="1" d="M299.5,495.5C307.5,495.5,307.5,495.5,315.5,495.5"></path><path id="kity_path_280" fill="none" stroke="rgb(115, 191, 118)" stroke-width="1" d="M66.5,292.5A62,250,0,0,0,128.5,542.5"></path><path id="kity_path_288" fill="none" stroke="rgb(115, 191, 118)" stroke-width="1" d="M198.5,542.5C206.5,542.5,206.5,529.5,214.5,529.5"></path><path id="kity_path_296" fill="none" stroke="rgb(115, 191, 118)" stroke-width="1" d="M198.5,542.5C206.5,542.5,206.5,555.5,214.5,555.5"></path><path id="kity_path_304" fill="none" stroke="rgb(115, 191, 118)" stroke-width="1" d="M283.5,529.5C291.5,529.5,291.5,529.5,299.5,529.5"></path><path id="kity_path_312" fill="none" stroke="rgb(115, 191, 118)" stroke-width="1" d="M283.5,555.5C291.5,555.5,291.5,555.5,299.5,555.5"></path></g><g id="minder_node1"><path id="node_outline1" fill="rgb(115, 191, 118)" stroke="rgb(115, 191, 118)" d="M25.5,278.5h82a5,5,0,0,1,5,5v18a5,5,0,0,1,-5,5h-82a5,5,0,0,1,-5,-5v-18a5,5,0,0,1,5,-5z" stroke-width="3"></path><g id="node_text1" fill="white"><text id="kity_text_22" text-rendering="inherit" font-size="16" dy=".8em" y="284.5" x="32.5">X509证书</text></g></g><g id="kity_g_12"><path id="kity_path_13" fill="none" stroke="none" d="M32.5,292.5h0v0h0z"></path></g><g id="kity_g_14"><path id="kity_path_15" fill="none" stroke="none" d="M32.5,292.5h0v0h0z"></path><path id="kity_path_16" fill="none" stroke="none"></path></g><g id="minder_node2"><g id="node_expander1" style="cursor: pointer;" display="none"><path id="kity_path_36" fill="white" stroke="gray" d="M214.5,29.5A6,6,0,1,1,202.5,29.5A6,6,0,1,1,214.5,29.5"></path><path id="kity_path_37" fill="none" stroke="gray"></path></g><path id="node_outline2" fill="none" stroke="none" d="M219.5,20.5h232a5,5,0,0,1,5,5v8a5,5,0,0,1,-5,5h-232a5,5,0,0,1,-5,-5v-8a5,5,0,0,1,5,-5z" stroke-width="3"></path><g id="node_text2" fill="black"><text id="kity_text_33" text-rendering="inherit" font-size="12" dy=".8em" y="23.5" x="219.5">通常称为PKIX for Public Key Infrastructure</text></g></g><g id="minder_node3"><g id="node_expander2" style="cursor: pointer;"><path id="kity_path_44" fill="white" stroke="gray" d="M129.5,42.5A6,6,0,1,1,117.5,42.5A6,6,0,1,1,129.5,42.5"></path><path id="kity_path_45" fill="none" stroke="gray" d="M119,42.5L128,42.5"></path></g><path id="node_outline3" fill="rgb(238, 246, 238)" stroke="rgb(115, 191, 118)" d="M133.5,29.5h62a3,3,0,0,1,3,3v20a3,3,0,0,1,-3,3h-62a3,3,0,0,1,-3,-3v-20a3,3,0,0,1,3,-3z" stroke-width="1"></path><g id="node_text3" fill="black"><text id="kity_text_41" text-rendering="inherit" font-size="14" dy=".8em" y="35.5" x="150.5">概念</text></g></g><g id="minder_node4"><g id="node_expander3" style="cursor: pointer;" display="none"><path id="kity_path_52" fill="white" stroke="gray" d="M214.5,55.5A6,6,0,1,1,202.5,55.5A6,6,0,1,1,214.5,55.5"></path><path id="kity_path_53" fill="none" stroke="gray"></path></g><path id="node_outline4" fill="none" stroke="none" d="M219.5,46.5h112a5,5,0,0,1,5,5v8a5,5,0,0,1,-5,5h-112a5,5,0,0,1,-5,-5v-8a5,5,0,0,1,5,-5z" stroke-width="3"></path><g id="node_text4" fill="black"><text id="kity_text_49" text-rendering="inherit" font-size="12" dy=".8em" y="49.5" x="219.5">标准文件为RFC 5280</text></g></g><g id="minder_node5"><g id="node_expander4" style="cursor: pointer;"><path id="kity_path_60" fill="white" stroke="gray" d="M129.5,115.5A6,6,0,1,1,117.5,115.5A6,6,0,1,1,129.5,115.5"></path><path id="kity_path_61" fill="none" stroke="gray" d="M119,115.5L128,115.5"></path></g><path id="node_outline5" fill="rgb(238, 246, 238)" stroke="rgb(115, 191, 118)" d="M133.5,102.5h90a3,3,0,0,1,3,3v20a3,3,0,0,1,-3,3h-90a3,3,0,0,1,-3,-3v-20a3,3,0,0,1,3,-3z" stroke-width="1"></path><g id="node_text5" fill="black"><text id="kity_text_57" text-rendering="inherit" font-size="14" dy=".8em" y="108.5" x="150.5">编码方式</text></g></g><g id="minder_node6"><g id="node_expander5" style="cursor: pointer;" display="none"><path id="kity_path_68" fill="white" stroke="gray" d="M242.5,89.5A6,6,0,1,1,230.5,89.5A6,6,0,1,1,242.5,89.5"></path><path id="kity_path_69" fill="none" stroke="gray" d="M232,89.5L241,89.5"></path></g><path id="node_outline6" fill="none" stroke="none" d="M247.5,80.5h83a5,5,0,0,1,5,5v8a5,5,0,0,1,-5,5h-83a5,5,0,0,1,-5,-5v-8a5,5,0,0,1,5,-5z" stroke-width="3"></path><g id="node_text6" fill="black"><text id="kity_text_65" text-rendering="inherit" font-size="12" dy=".8em" y="83.5" x="247.5">二进制（DER）</text></g></g><g id="minder_node7"><g id="node_expander6" style="cursor: pointer;" display="none"><path id="kity_path_76" fill="white" stroke="gray" d="M242.5,115.5A6,6,0,1,1,230.5,115.5A6,6,0,1,1,242.5,115.5"></path><path id="kity_path_77" fill="none" stroke="gray"></path></g><path id="node_outline7" fill="none" stroke="none" d="M247.5,106.5h79a5,5,0,0,1,5,5v8a5,5,0,0,1,-5,5h-79a5,5,0,0,1,-5,-5v-8a5,5,0,0,1,5,-5z" stroke-width="3"></path><g id="node_text7" fill="black"><text id="kity_text_73" text-rendering="inherit" font-size="12" dy=".8em" y="109.5" x="247.5">ASCII（PEM）</text></g></g><g id="minder_node10"><g id="node_expander9" style="cursor: pointer;" display="none"><path id="kity_path_100" fill="white" stroke="gray" d="M242.5,141.5A6,6,0,1,1,230.5,141.5A6,6,0,1,1,242.5,141.5"></path><path id="kity_path_101" fill="none" stroke="gray"></path></g><path id="node_outline10" fill="none" stroke="none" d="M247.5,132.5h204a5,5,0,0,1,5,5v8a5,5,0,0,1,-5,5h-204a5,5,0,0,1,-5,-5v-8a5,5,0,0,1,5,-5z" stroke-width="3"></path><g id="node_text10" fill="black"><text id="kity_text_97" text-rendering="inherit" font-size="12" dy=".8em" y="135.5" x="247.5">同一后缀的文件可能有不同的编码方式</text></g></g><g id="minder_node11"><g id="node_expander10" style="cursor: pointer;"><path id="kity_path_108" fill="white" stroke="gray" d="M129.5,299.5A6,6,0,1,1,117.5,299.5A6,6,0,1,1,129.5,299.5"></path><path id="kity_path_109" fill="none" stroke="gray" d="M119,299.5L128,299.5"></path></g><path id="node_outline11" fill="rgb(238, 246, 238)" stroke="rgb(115, 191, 118)" d="M133.5,286.5h62a3,3,0,0,1,3,3v20a3,3,0,0,1,-3,3h-62a3,3,0,0,1,-3,-3v-20a3,3,0,0,1,3,-3z" stroke-width="1"></path><g id="node_text11" fill="black"><text id="kity_text_105" text-rendering="inherit" font-size="14" dy=".8em" y="292.5" x="150.5">扩展</text></g></g><g id="minder_node12"><g id="node_expander11" style="cursor: pointer;"><path id="kity_path_116" fill="white" stroke="gray" d="M214.5,176.5A6,6,0,1,1,202.5,176.5A6,6,0,1,1,214.5,176.5"></path><path id="kity_path_117" fill="none" stroke="gray" d="M204,176.5L213,176.5"></path></g><path id="node_outline12" fill="none" stroke="none" d="M219.5,167.5h23a5,5,0,0,1,5,5v8a5,5,0,0,1,-5,5h-23a5,5,0,0,1,-5,-5v-8a5,5,0,0,1,5,-5z" stroke-width="3"></path><g id="node_text12" fill="black"><text id="kity_text_113" text-rendering="inherit" font-size="12" dy=".8em" y="170.5" x="219.5">.der</text></g></g><g id="minder_node13"><g id="node_expander12" style="cursor: pointer;" display="none"><path id="kity_path_124" fill="white" stroke="gray" d="M263.5,176.5A6,6,0,1,1,251.5,176.5A6,6,0,1,1,263.5,176.5"></path><path id="kity_path_125" fill="none" stroke="gray"></path></g><path id="node_outline13" fill="none" stroke="none" d="M268.5,167.5h131a5,5,0,0,1,5,5v8a5,5,0,0,1,-5,5h-131a5,5,0,0,1,-5,-5v-8a5,5,0,0,1,5,-5z" stroke-width="3"></path><g id="node_text13" fill="black"><text id="kity_text_121" text-rendering="inherit" font-size="12" dy=".8em" y="170.5" x="268.5">用于二进制DER编码证书</text></g></g><g id="minder_node14"><g id="node_expander13" style="cursor: pointer;"><path id="kity_path_132" fill="white" stroke="gray" d="M214.5,215.5A6,6,0,1,1,202.5,215.5A6,6,0,1,1,214.5,215.5"></path><path id="kity_path_133" fill="none" stroke="gray" d="M204,215.5L213,215.5"></path></g><path id="node_outline14" fill="none" stroke="none" d="M219.5,206.5h31a5,5,0,0,1,5,5v8a5,5,0,0,1,-5,5h-31a5,5,0,0,1,-5,-5v-8a5,5,0,0,1,5,-5z" stroke-width="3"></path><g id="node_text14" fill="black"><text id="kity_text_129" text-rendering="inherit" font-size="12" dy=".8em" y="209.5" x="219.5">.pem</text></g></g><g id="minder_node15"><g id="node_expander14" style="cursor: pointer;" display="none"><path id="kity_path_140" fill="white" stroke="gray" d="M271.5,202.5A6,6,0,1,1,259.5,202.5A6,6,0,1,1,271.5,202.5"></path><path id="kity_path_141" fill="none" stroke="gray"></path></g><path id="node_outline15" fill="none" stroke="none" d="M276.5,193.5h425a5,5,0,0,1,5,5v8a5,5,0,0,1,-5,5h-425a5,5,0,0,1,-5,-5v-8a5,5,0,0,1,5,-5z" stroke-width="3"></path><g id="node_text15" fill="black"><text id="kity_text_137" text-rendering="inherit" font-size="12" dy=".8em" y="196.5" x="276.5">用于不同类型的X.509v3文件，是以“ - BEGIN ...”前缀的ASCII（Base64）数据</text></g></g><g id="minder_node16"><g id="node_expander15" style="cursor: pointer;" display="none"><path id="kity_path_148" fill="white" stroke="gray" d="M271.5,228.5A6,6,0,1,1,259.5,228.5A6,6,0,1,1,271.5,228.5"></path><path id="kity_path_149" fill="none" stroke="gray"></path></g><path id="node_outline16" fill="none" stroke="none" d="M276.5,219.5h216a5,5,0,0,1,5,5v8a5,5,0,0,1,-5,5h-216a5,5,0,0,1,-5,-5v-8a5,5,0,0,1,5,-5z" stroke-width="3"></path><g id="node_text16" fill="black"><text id="kity_text_145" text-rendering="inherit" font-size="12" dy=".8em" y="222.5" x="276.5">不止用于证书，还可用于单独的私钥文件</text></g></g><g id="minder_node17"><g id="node_expander16" style="cursor: pointer;"><path id="kity_path_156" fill="white" stroke="gray" d="M214.5,293.5A6,6,0,1,1,202.5,293.5A6,6,0,1,1,214.5,293.5"></path><path id="kity_path_157" fill="none" stroke="gray" d="M204,293.5L213,293.5"></path></g><path id="node_outline17" fill="none" stroke="none" d="M219.5,284.5h19a5,5,0,0,1,5,5v8a5,5,0,0,1,-5,5h-19a5,5,0,0,1,-5,-5v-8a5,5,0,0,1,5,-5z" stroke-width="3"></path><g id="node_text17" fill="black"><text id="kity_text_153" text-rendering="inherit" font-size="12" dy=".8em" y="287.5" x="219.5">.crt</text></g></g><g id="minder_node18"><g id="node_expander17" style="cursor: pointer;" display="none"><path id="kity_path_164" fill="white" stroke="gray" d="M259.5,254.5A6,6,0,1,1,247.5,254.5A6,6,0,1,1,259.5,254.5"></path><path id="kity_path_165" fill="none" stroke="gray"></path></g><path id="node_outline18" fill="none" stroke="none" d="M264.5,245.5h48a5,5,0,0,1,5,5v8a5,5,0,0,1,-5,5h-48a5,5,0,0,1,-5,-5v-8a5,5,0,0,1,5,-5z" stroke-width="3"></path><g id="node_text18" fill="black"><text id="kity_text_161" text-rendering="inherit" font-size="12" dy=".8em" y="248.5" x="264.5">用于证书</text></g></g><g id="minder_node19"><g id="node_expander18" style="cursor: pointer;" display="none"><path id="kity_path_172" fill="white" stroke="gray" d="M259.5,280.5A6,6,0,1,1,247.5,280.5A6,6,0,1,1,259.5,280.5"></path><path id="kity_path_173" fill="none" stroke="gray"></path></g><path id="node_outline19" fill="none" stroke="none" d="M264.5,271.5h200a5,5,0,0,1,5,5v8a5,5,0,0,1,-5,5h-200a5,5,0,0,1,-5,-5v-8a5,5,0,0,1,5,-5z" stroke-width="3"></path><g id="node_text19" fill="black"><text id="kity_text_169" text-rendering="inherit" font-size="12" dy=".8em" y="274.5" x="264.5">可以采用二进制DER或ASCII PEM编码</text></g></g><g id="minder_node20"><g id="node_expander19" style="cursor: pointer;" display="none"><path id="kity_path_180" fill="white" stroke="gray" d="M259.5,306.5A6,6,0,1,1,247.5,306.5A6,6,0,1,1,259.5,306.5"></path><path id="kity_path_181" fill="none" stroke="gray"></path></g><path id="node_outline20" fill="none" stroke="none" d="M264.5,297.5h134a5,5,0,0,1,5,5v8a5,5,0,0,1,-5,5h-134a5,5,0,0,1,-5,-5v-8a5,5,0,0,1,5,-5z" stroke-width="3"></path><g id="node_text20" fill="black"><text id="kity_text_177" text-rendering="inherit" font-size="12" dy=".8em" y="300.5" x="264.5">Unix 或类Unix系统中常见</text></g></g><g id="minder_node21"><g id="node_expander20" style="cursor: pointer;" display="none"><path id="kity_path_189" fill="white" stroke="gray" d="M259.5,332.5A6,6,0,1,1,247.5,332.5A6,6,0,1,1,259.5,332.5"></path><path id="kity_path_190" fill="none" stroke="gray"></path></g><path id="node_outline21" fill="none" stroke="none" d="M264.5,323.5h154a5,5,0,0,1,5,5v8a5,5,0,0,1,-5,5h-154a5,5,0,0,1,-5,-5v-8a5,5,0,0,1,5,-5z" stroke-width="3"></path><g id="node_text21" fill="black"><text id="kity_text_186" text-rendering="inherit" font-size="12" dy=".8em" y="326.5" x="264.5">CER和CRT扩展几乎是同义词</text></g></g><g id="minder_node22"><g id="node_expander21" style="cursor: pointer;"><path id="kity_path_197" fill="white" stroke="gray" d="M214.5,371.5A6,6,0,1,1,202.5,371.5A6,6,0,1,1,214.5,371.5"></path><path id="kity_path_198" fill="none" stroke="gray" d="M204,371.5L213,371.5"></path></g><path id="node_outline22" fill="none" stroke="none" d="M219.5,362.5h23a5,5,0,0,1,5,5v8a5,5,0,0,1,-5,5h-23a5,5,0,0,1,-5,-5v-8a5,5,0,0,1,5,-5z" stroke-width="3"></path><g id="node_text22" fill="black"><text id="kity_text_194" text-rendering="inherit" font-size="12" dy=".8em" y="365.5" x="219.5">.cer</text></g></g><g id="minder_node23"><g id="node_expander22" style="cursor: pointer;" display="none"><path id="kity_path_205" fill="white" stroke="gray" d="M263.5,358.5A6,6,0,1,1,251.5,358.5A6,6,0,1,1,263.5,358.5"></path><path id="kity_path_206" fill="none" stroke="gray"></path></g><path id="node_outline23" fill="none" stroke="none" d="M268.5,349.5h75a5,5,0,0,1,5,5v8a5,5,0,0,1,-5,5h-75a5,5,0,0,1,-5,-5v-8a5,5,0,0,1,5,-5z" stroke-width="3"></path><g id="node_text23" fill="black"><text id="kity_text_202" text-rendering="inherit" font-size="12" dy=".8em" y="352.5" x="268.5">crt的替代形式</text></g></g><g id="minder_node24"><g id="node_expander23" style="cursor: pointer;" display="none"><path id="kity_path_213" fill="white" stroke="gray" d="M263.5,384.5A6,6,0,1,1,251.5,384.5A6,6,0,1,1,263.5,384.5"></path><path id="kity_path_214" fill="none" stroke="gray"></path></g><path id="node_outline24" fill="none" stroke="none" d="M268.5,375.5h119a5,5,0,0,1,5,5v8a5,5,0,0,1,-5,5h-119a5,5,0,0,1,-5,-5v-8a5,5,0,0,1,5,-5z" stroke-width="3"></path><g id="node_text24" fill="black"><text id="kity_text_210" text-rendering="inherit" font-size="12" dy=".8em" y="378.5" x="268.5">macrosoft的转换形式</text></g></g><g id="minder_node25"><g id="node_expander24" style="cursor: pointer;"><path id="kity_path_221" fill="white" stroke="gray" d="M214.5,423.5A6,6,0,1,1,202.5,423.5A6,6,0,1,1,214.5,423.5"></path><path id="kity_path_222" fill="none" stroke="gray" d="M204,423.5L213,423.5"></path></g><path id="node_outline25" fill="none" stroke="none" d="M219.5,414.5h24a5,5,0,0,1,5,5v8a5,5,0,0,1,-5,5h-24a5,5,0,0,1,-5,-5v-8a5,5,0,0,1,5,-5z" stroke-width="3"></path><g id="node_text25" fill="black"><text id="kity_text_218" text-rendering="inherit" font-size="12" dy=".8em" y="417.5" x="219.5">.key</text></g></g><g id="minder_node26"><g id="node_expander25" style="cursor: pointer;" display="none"><path id="kity_path_229" fill="white" stroke="gray" d="M264.5,410.5A6,6,0,1,1,252.5,410.5A6,6,0,1,1,264.5,410.5"></path><path id="kity_path_230" fill="none" stroke="gray"></path></g><path id="node_outline26" fill="none" stroke="none" d="M269.5,401.5h133a5,5,0,0,1,5,5v8a5,5,0,0,1,-5,5h-133a5,5,0,0,1,-5,-5v-8a5,5,0,0,1,5,-5z" stroke-width="3"></path><g id="node_text26" fill="black"><text id="kity_text_226" text-rendering="inherit" font-size="12" dy=".8em" y="404.5" x="269.5">用于公钥和私钥PKCS＃8</text></g></g><g id="minder_node27"><g id="node_expander26" style="cursor: pointer;" display="none"><path id="kity_path_237" fill="white" stroke="gray" d="M264.5,436.5A6,6,0,1,1,252.5,436.5A6,6,0,1,1,264.5,436.5"></path><path id="kity_path_238" fill="none" stroke="gray"></path></g><path id="node_outline27" fill="none" stroke="none" d="M269.5,427.5h200a5,5,0,0,1,5,5v8a5,5,0,0,1,-5,5h-200a5,5,0,0,1,-5,-5v-8a5,5,0,0,1,5,-5z" stroke-width="3"></path><g id="node_text27" fill="black"><text id="kity_text_234" text-rendering="inherit" font-size="12" dy=".8em" y="430.5" x="269.5">可以被编码为二进制DER或ASCII PEM</text></g></g><g id="minder_node28"><g id="node_expander27" style="cursor: pointer;"><path id="kity_path_245" fill="white" stroke="gray" d="M129.5,482.5A6,6,0,1,1,117.5,482.5A6,6,0,1,1,129.5,482.5"></path><path id="kity_path_246" fill="none" stroke="gray" d="M119,482.5L128,482.5"></path></g><path id="node_outline28" fill="rgb(238, 246, 238)" stroke="rgb(115, 191, 118)" d="M133.5,469.5h90a3,3,0,0,1,3,3v20a3,3,0,0,1,-3,3h-90a3,3,0,0,1,-3,-3v-20a3,3,0,0,1,3,-3z" stroke-width="1"></path><g id="node_text28" fill="black"><text id="kity_text_242" text-rendering="inherit" font-size="14" dy=".8em" y="475.5" x="150.5">查看证书</text></g></g><g id="minder_node29"><g id="node_expander28" style="cursor: pointer;"><path id="kity_path_253" fill="white" stroke="gray" d="M242.5,469.5A6,6,0,1,1,230.5,469.5A6,6,0,1,1,242.5,469.5"></path><path id="kity_path_254" fill="none" stroke="gray" d="M232,469.5L241,469.5"></path></g><path id="node_outline29" fill="none" stroke="none" d="M247.5,460.5h49a5,5,0,0,1,5,5v8a5,5,0,0,1,-5,5h-49a5,5,0,0,1,-5,-5v-8a5,5,0,0,1,5,-5z" stroke-width="3"></path><g id="node_text29" fill="black"><text id="kity_text_250" text-rendering="inherit" font-size="12" dy=".8em" y="463.5" x="247.5">PEM编码</text></g></g><g id="minder_node30"><g id="node_expander29" style="cursor: pointer;" display="none"><path id="kity_path_261" fill="white" stroke="gray" d="M317.5,469.5A6,6,0,1,1,305.5,469.5A6,6,0,1,1,317.5,469.5"></path><path id="kity_path_262" fill="none" stroke="gray"></path></g><path id="node_outline30" fill="none" stroke="none" d="M322.5,460.5h192a5,5,0,0,1,5,5v8a5,5,0,0,1,-5,5h-192a5,5,0,0,1,-5,-5v-8a5,5,0,0,1,5,-5z" stroke-width="3"></path><g id="node_text30" fill="black"><text id="kity_text_258" text-rendering="inherit" font-size="12" dy=".8em" y="463.5" x="322.5">openssl x509 -in &lt;file&gt; -text -noout</text></g></g><g id="minder_node31"><g id="node_expander30" style="cursor: pointer;"><path id="kity_path_269" fill="white" stroke="gray" d="M242.5,495.5A6,6,0,1,1,230.5,495.5A6,6,0,1,1,242.5,495.5"></path><path id="kity_path_270" fill="none" stroke="gray" d="M232,495.5L241,495.5"></path></g><path id="node_outline31" fill="none" stroke="none" d="M247.5,486.5h47a5,5,0,0,1,5,5v8a5,5,0,0,1,-5,5h-47a5,5,0,0,1,-5,-5v-8a5,5,0,0,1,5,-5z" stroke-width="3"></path><g id="node_text31" fill="black"><text id="kity_text_266" text-rendering="inherit" font-size="12" dy=".8em" y="489.5" x="247.5">DER编码</text></g></g><g id="minder_node32"><g id="node_expander31" style="cursor: pointer;" display="none"><path id="kity_path_277" fill="white" stroke="gray" d="M315.5,495.5A6,6,0,1,1,303.5,495.5A6,6,0,1,1,315.5,495.5"></path><path id="kity_path_278" fill="none" stroke="gray"></path></g><path id="node_outline32" fill="none" stroke="none" d="M320.5,486.5h258a5,5,0,0,1,5,5v8a5,5,0,0,1,-5,5h-258a5,5,0,0,1,-5,-5v-8a5,5,0,0,1,5,-5z" stroke-width="3"></path><g id="node_text32" fill="black"><text id="kity_text_274" text-rendering="inherit" font-size="12" dy=".8em" y="489.5" x="320.5">openssl x509 -in &lt;file&gt; -inform der -text -noout</text></g></g><g id="minder_node33"><g id="node_expander32" style="cursor: pointer;"><path id="kity_path_285" fill="white" stroke="gray" d="M129.5,542.5A6,6,0,1,1,117.5,542.5A6,6,0,1,1,129.5,542.5"></path><path id="kity_path_286" fill="none" stroke="gray" d="M119,542.5L128,542.5"></path></g><path id="node_outline33" fill="rgb(238, 246, 238)" stroke="rgb(57, 96, 58)" d="M133.5,529.5h62a3,3,0,0,1,3,3v20a3,3,0,0,1,-3,3h-62a3,3,0,0,1,-3,-3v-20a3,3,0,0,1,3,-3z" stroke-width="3"></path><g id="node_text33" fill="black"><text id="kity_text_282" text-rendering="inherit" font-size="14" dy=".8em" y="535.5" x="150.5">转换</text></g></g><g id="minder_node34"><g id="node_expander33" style="cursor: pointer;"><path id="kity_path_293" fill="white" stroke="gray" d="M214.5,529.5A6,6,0,1,1,202.5,529.5A6,6,0,1,1,214.5,529.5"></path><path id="kity_path_294" fill="none" stroke="gray" d="M204,529.5L213,529.5"></path></g><path id="node_outline34" fill="none" stroke="none" d="M219.5,520.5h59a5,5,0,0,1,5,5v8a5,5,0,0,1,-5,5h-59a5,5,0,0,1,-5,-5v-8a5,5,0,0,1,5,-5z" stroke-width="3"></path><g id="node_text34" fill="black"><text id="kity_text_290" text-rendering="inherit" font-size="12" dy=".8em" y="523.5" x="219.5">PEM转DER</text></g></g><g id="minder_node35"><g id="node_expander34" style="cursor: pointer;"><path id="kity_path_301" fill="white" stroke="gray" d="M214.5,555.5A6,6,0,1,1,202.5,555.5A6,6,0,1,1,214.5,555.5"></path><path id="kity_path_302" fill="none" stroke="gray" d="M204,555.5L213,555.5"></path></g><path id="node_outline35" fill="none" stroke="none" d="M219.5,546.5h59a5,5,0,0,1,5,5v8a5,5,0,0,1,-5,5h-59a5,5,0,0,1,-5,-5v-8a5,5,0,0,1,5,-5z" stroke-width="3"></path><g id="node_text35" fill="black"><text id="kity_text_298" text-rendering="inherit" font-size="12" dy=".8em" y="549.5" x="219.5">DER转PEM</text></g></g><g id="minder_node36"><g id="node_expander35" style="cursor: pointer;" display="none"><path id="kity_path_309" fill="white" stroke="gray" d="M299.5,529.5A6,6,0,1,1,287.5,529.5A6,6,0,1,1,299.5,529.5"></path><path id="kity_path_310" fill="none" stroke="gray"></path></g><path id="node_outline36" fill="none" stroke="none" d="M304.5,520.5h255a5,5,0,0,1,5,5v8a5,5,0,0,1,-5,5h-255a5,5,0,0,1,-5,-5v-8a5,5,0,0,1,5,-5z" stroke-width="3"></path><g id="node_text36" fill="black"><text id="kity_text_306" text-rendering="inherit" font-size="12" dy=".8em" y="523.5" x="304.5">openssl x509 -in &lt;file&gt; -outform der-out &lt;file&gt;</text></g></g><g id="minder_node37"><g id="node_expander36" style="cursor: pointer;" display="none"><path id="kity_path_317" fill="white" stroke="gray" d="M299.5,555.5A6,6,0,1,1,287.5,555.5A6,6,0,1,1,299.5,555.5"></path><path id="kity_path_318" fill="none" stroke="gray"></path></g><path id="node_outline37" fill="none" stroke="none" d="M304.5,546.5h331a5,5,0,0,1,5,5v8a5,5,0,0,1,-5,5h-331a5,5,0,0,1,-5,-5v-8a5,5,0,0,1,5,-5z" stroke-width="3"></path><g id="node_text37" fill="black"><text id="kity_text_314" text-rendering="inherit" font-size="12" dy=".8em" y="549.5" x="304.5">openssl x509 -in &lt;file&gt; -inform der -outform pem -out &lt;file&gt;</text></g></g></g></g></svg>